<?xml version="1.0"?>
<svg xmlns="http://www.w3.org/2000/svg" xmlns:xlink="http://www.w3.org/1999/xlink" xmlns:svgjs="http://svgjs.com/svgjs" version="1.1" width="512" height="512" x="0" y="0" viewBox="0 0 64 64" style="enable-background:new 0 0 512 512" xml:space="preserve" class=""><g><g xmlns="http://www.w3.org/2000/svg" id="Layer_52" data-name="Layer 52"><path d="M60.92,24.63,55,19.73V11a3.009,3.009,0,0,0-3-3H40.82l-6.9-5.71a2.991,2.991,0,0,0-3.84,0L23.18,8H12a3.009,3.009,0,0,0-3,3v8.73L3.08,24.64A2.972,2.972,0,0,0,2,26.94V59a3.009,3.009,0,0,0,3,3H59a3.009,3.009,0,0,0,3-3V26.94A3.008,3.008,0,0,0,60.92,24.63ZM55,22.33l3.87,3.2L55,28.44ZM31.36,3.83a1,1,0,0,1,1.28,0L37.68,8H26.32ZM11,11a1,1,0,0,1,1-1H52a1,1,0,0,1,1,1V29.95l-14.62,11-4.49-3.69a3.01,3.01,0,0,0-3.78-.03l-4.66,3.73L11,30.4ZM9,22.33v6.61l-4.24-3.1ZM4,27.76l19.83,14.5L4,58.14ZM5,60c-.04,0-.07-.02-.1-.02L31.36,38.79a1.008,1.008,0,0,1,1.26.01L58.4,60Zm55-1.28L39.97,42.26,60,27.19Z" fill="#21268f" data-original="#000000" style="" class=""/><path d="M16,16H36a1,1,0,0,0,0-2H16a1,1,0,0,0,0,2Z" fill="#21268f" data-original="#000000" style="" class=""/><path d="M40,16h8a1,1,0,0,0,0-2H40a1,1,0,0,0,0,2Z" fill="#21268f" data-original="#000000" style="" class=""/><path d="M16,22h8a1,1,0,0,0,0-2H16a1,1,0,0,0,0,2Z" fill="#21268f" data-original="#000000" style="" class=""/><path d="M48,20H28a1,1,0,0,0,0,2H48a1,1,0,0,0,0-2Z" fill="#21268f" data-original="#000000" style="" class=""/><path d="M48,26H36a1,1,0,0,0,0,2H48a1,1,0,0,0,0-2Z" fill="#21268f" data-original="#000000" style="" class=""/><path d="M16,28H32a1,1,0,0,0,0-2H16a1,1,0,0,0,0,2Z" fill="#21268f" data-original="#000000" style="" class=""/><path d="M44,32H28a1,1,0,0,0,0,2H44a1,1,0,0,0,0-2Z" fill="#21268f" data-original="#000000" style="" class=""/><path d="M24,32H20a1,1,0,0,0,0,2h4a1,1,0,0,0,0-2Z" fill="#21268f" data-original="#000000" style="" class=""/></g></g></svg>
